<?xml version="1.0" standalone="yes"?>

<svg version="1.1" viewBox="0.0 0.0 221.37007874015748 128.17322834645668" fill="none" stroke="none" stroke-linecap="square" stroke-miterlimit="10" xmlns="http://www.w3.org/2000/svg" xmlns:xlink="http://www.w3.org/1999/xlink"><clipPath id="p.0"><path d="m0 0l221.37007 0l0 128.17323l-221.37007 0l0 -128.17323z" clip-rule="nonzero"></path></clipPath><g clip-path="url(#p.0)"><path fill="#000000" fill-opacity="0.0" d="m0 0l221.37007 0l0 128.17323l-221.37007 0z" fill-rule="evenodd"></path><path fill="#000000" fill-opacity="0.0" d="m18.935047 64.053505l0 0c-1.6206474 -5.9085503 1.8551922 -12.012871 7.763506 -13.63438l113.564735 -31.16736c2.837265 -0.778677 5.8674927 -0.39831352 8.424072 1.0574131c2.5565643 1.4557266 4.4300537 3.8675728 5.208313 6.704958l11.7374115 42.79222c1.6206512 5.908554 -1.8551941 12.012871 -7.763504 13.634384l-113.56473 31.167358c-5.9083138 1.6215134 -12.011742 -1.8538208 -13.632389 -7.762375z" fill-rule="evenodd"></path><path stroke="#38761d" stroke-width="8.0" stroke-linejoin="round" stroke-linecap="butt" d="m18.935047 64.053505l0 0c-1.6206474 -5.9085503 1.8551922 -12.012871 7.763506 -13.63438l113.564735 -31.16736c2.837265 -0.778677 5.8674927 -0.39831352 8.424072 1.0574131c2.5565643 1.4557266 4.4300537 3.8675728 5.208313 6.704958l11.7374115 42.79222c1.6206512 5.908554 -1.8551941 12.012871 -7.763504 13.634384l-113.56473 31.167358c-5.9083138 1.6215134 -12.011742 -1.8538208 -13.632389 -7.762375z" fill-rule="evenodd"></path><path fill="#000000" fill-opacity="0.0" d="m159.76439 48.410248c13.73201 0 21.381332 -8.102364 27.46402 -16.204723c6.082672 -8.102364 10.598694 -16.204725 21.197388 -16.204725" fill-rule="evenodd"></path><path stroke="#38761d" stroke-width="8.0" stroke-linejoin="round" stroke-linecap="butt" d="m159.76439 48.410248c13.73201 0 21.381332 -8.102364 27.46402 -16.204723c6.082672 -8.102364 10.598694 -16.204725 21.197388 -16.204725" fill-rule="evenodd"></path><path fill="#000000" fill-opacity="0.0" d="m27.32389 55.008865l119.527565 -31.559055l10.393692 39.401573l-119.52756 31.559055z" fill-rule="evenodd"></path><path fill="#38761d" d="m59.42274 74.14487q0.32281494 1.2237625 0.079338074 2.3223114q-0.23235703 1.0794601 -0.9260864 1.9413681q-0.7978096 1.0186691 -1.9075928 1.6510544q-1.1097832 0.6323929 -2.9528732 1.1190262l-7.3572464 1.942543l-4.451664 -16.875847l6.5414543 -1.72715q2.039482 -0.5384903 3.0120049 -0.64982224q0.9876251 -0.11532211 2.0478249 0.10572815q1.0943985 0.22817612 1.7819214 0.9354744q0.6835327 0.6921921 0.96250916 1.7497635q0.32281494 1.2237625 -0.079704285 2.331993q-0.40650558 1.0931168 -1.445385 1.9330292l0.023914337 0.09064484q1.7494774 -0.10638428 2.9873505 0.66568756q1.2378693 0.77207184 1.6842346 2.4641953zm-7.4038773 -5.462799q-0.11159134 -0.42302704 -0.4306984 -0.7751007q-0.3230934 -0.3671875 -0.90764236 -0.43909454q-0.5161514 -0.057647705 -1.2301788 0.114715576q-0.7140274 0.17237091 -1.998146 0.5114136l-0.40789795 0.10770416l0.94054794 3.5655289l0.67982864 -0.17949677q1.027298 -0.27124023 1.7444763 -0.4929123q0.71717834 -0.22167969 1.0883713 -0.5297775q0.5214348 -0.4123993 0.59511566 -0.86818695q0.069698334 -0.47089386 -0.073776245 -1.0147934zm2.881977 6.57592q-0.2112236 -0.8007355 -0.6440544 -1.1551056q-0.432827 -0.35437775 -1.2288818 -0.37043762q-0.5535011 -0.015464783 -1.444828 0.21987152q-0.8953171 0.2202301 -1.8772888 0.47950745l-0.95175934 0.25128937l1.107933 4.200081l0.3172531 -0.08376312q1.84309 -0.4866333 2.628666 -0.69405365q0.79670334 -0.22651672 1.3857002 -0.6890793q0.6041069 -0.46655273 0.7373848 -1.0027161q0.13327408 -0.53616333 -0.030124664 -1.1555939zm15.501457 -11.009552q-0.16738129 -0.6345444 -0.55887604 -1.0159912q-0.37638855 -0.385437 -1.0786438 -0.4747467q-0.4859314 -0.06562424 -1.0830917 0.0597229q-0.60113525 0.11024094 -1.3867188 0.31765747l-1.5711594 0.41483688l1.1956177 4.5324593l1.3445435 -0.35500336q1.0424042 -0.2752304 1.7134247 -0.5493622q0.6821518 -0.29323578 1.0548248 -0.77948q0.361557 -0.46715546 0.46146393 -0.94602966q0.09593201 -0.4939804 -0.09138489 -1.2040634zm9.871841 9.917877l-5.317772 1.4040527l-6.226616 -4.981758l-2.0092697 0.53050995l1.6340027 6.194359l-4.3206787 1.1407928l-4.451664 -16.875847l7.296818 -1.92659q1.4956207 -0.39488983 2.616066 -0.49679947q1.1164551 -0.117012024 2.2005615 0.19468307q1.1032028 0.32281876 1.9012985 1.0817223q0.80921173 0.73981094 1.1679001 2.0995483q0.4941864 1.8734169 -0.07118225 3.283207q-0.5502548 1.4057999 -1.9634781 2.603119l7.544014 5.7490005zm17.501785 -4.621025l-4.5019684 1.1886597l-2.0639572 -3.107315l-6.2544174 1.6513672l-0.2776718 3.7255783l-4.381111 1.1567535l1.7876434 -18.523228l5.000511 -1.3202934l10.690971 15.2284775zm-8.440437 -4.736618l-3.6638489 -5.496811l-0.490654 6.5937347l4.154503 -1.0969238zm26.19905 0.047782898l-4.1847153 1.1048965l-10.217636 -9.697292l3.0567856 11.587978l-3.988327 1.0530472l-4.45166 -16.87585l5.196907 -1.3721466l8.699303 8.045799l-2.5506363 -9.669243l3.9883194 -1.0530434l4.45166 16.875854zm18.031471 -13.762253q0.62171936 2.3568764 0.02418518 4.5023766q-0.5824127 2.1415138 -1.9509583 3.5694466q-1.0395355 1.082489 -2.4403381 1.7755547q-1.3896866 0.67396927 -3.4140625 1.2084694l-5.9371643 1.5676003l-4.45166 -16.87585l6.1184464 -1.6154633q2.054596 -0.54247665 3.6418762 -0.5898819q1.5872879 -0.04740143 2.7819672 0.3159027q2.0163193 0.5988617 3.4916458 2.1485863q1.4904327 1.5457306 2.1360626 3.9932594zm-4.5139313 1.1433372q-0.438385 -1.6618996 -1.3535461 -2.6807861q-0.91913605 -1.0339966 -2.408821 -1.3517303q-0.75240326 -0.15687561 -1.4903412 -0.075157166q-0.72681427 0.062618256 -2.1317978 0.4335785l-1.0877228 0.2871933l2.7857742 10.560623l1.0877304 -0.2871933q1.5560455 -0.4108467 2.2453308 -0.73828125q0.6852951 -0.34254456 1.2805939 -0.9037361q1.0141296 -0.9949837 1.2590942 -2.2716942q0.25608826 -1.2958069 -0.18629456 -2.9728165z" fill-rule="nonzero"></path></g></svg>

