<?xml version="1.0" standalone="yes"?>

<svg version="1.1" viewBox="0.0 0.0 123.75853018372703 123.3254593175853" fill="none" stroke="none" stroke-linecap="square" stroke-miterlimit="10" xmlns="http://www.w3.org/2000/svg" xmlns:xlink="http://www.w3.org/1999/xlink"><clipPath id="p.0"><path d="m0 0l123.75853 0l0 123.32546l-123.75853 0l0 -123.32546z" clip-rule="nonzero"></path></clipPath><g clip-path="url(#p.0)"><path fill="#000000" fill-opacity="0.0" d="m0 0l123.75853 0l0 123.32546l-123.75853 0z" fill-rule="evenodd"></path><path fill="#000000" fill-opacity="0.0" d="m52.596405 84.443054c0 -8.582672 -3.0787392 -12.874016 -6.1574783 -17.165352c-3.0787392 -4.29134 -6.157482 -8.58268 -6.157482 -17.165356" fill-rule="evenodd"></path><path stroke="#38761d" stroke-width="8.0" stroke-linejoin="round" stroke-linecap="butt" d="m52.596405 84.443054c0 -8.582672 -3.0787392 -12.874016 -6.1574783 -17.165352c-3.0787392 -4.29134 -6.157482 -8.58268 -6.157482 -17.165356" fill-rule="evenodd"></path><path fill="#000000" fill-opacity="0.0" d="m81.40481 50.112347c0 8.582676 -3.078743 12.874016 -6.157486 17.165356c-3.0787354 4.291336 -6.1574783 8.58268 -6.1574783 17.165352" fill-rule="evenodd"></path><path stroke="#38761d" stroke-width="8.0" stroke-linejoin="round" stroke-linecap="butt" d="m81.40481 50.112347c0 8.582676 -3.078743 12.874016 -6.157486 17.165356c-3.0787354 4.291336 -6.1574783 8.58268 -6.1574783 17.165352" fill-rule="evenodd"></path><path fill="#38761d" d="m49.19685 89.440216l0 0c0 -1.4636612 1.1865311 -2.6501923 2.6501884 -2.6501923l17.282303 0c0.70287323 0 1.3769608 0.27922058 1.8739624 0.7762222c0.49700928 0.49700928 0.7762222 1.1710968 0.7762222 1.87397l0 1.219307c0 1.4636612 -1.1865234 2.6501846 -2.6501846 2.6501846l-17.282303 0c-1.4636574 0 -2.6501884 -1.1865234 -2.6501884 -2.6501846z" fill-rule="evenodd"></path><path fill="#38761d" d="m49.19685 98.30636l0 0c0 -1.4636612 1.1865311 -2.6501923 2.6501884 -2.6501923l17.282303 0c0.70287323 0 1.3769608 0.27922058 1.8739624 0.7762222c0.49700928 0.49700928 0.7762222 1.1710968 0.7762222 1.87397l0 1.219307c0 1.4636612 -1.1865234 2.6501846 -2.6501846 2.6501846l-17.282303 0c-1.4636574 0 -2.6501884 -1.1865234 -2.6501884 -2.6501846z" fill-rule="evenodd"></path><path fill="#38761d" d="m50.82677 104.52231l19.322834 0l0 4.125984l-7.165352 6.078743l-4.7742805 0l-6.947506 -5.427826z" fill-rule="evenodd"></path><path fill="#38761d" d="m57.330708 9.246719l7.1496086 0l0 14.110235l-7.1496086 0z" fill-rule="evenodd"></path><path fill="#38761d" d="m36.6063 50.85302l0 0c0 -12.015293 10.82597 -21.767698 24.211872 -21.810884c13.385906 -0.043186188 24.2897 9.639112 24.385921 21.654097l-7.571327 0.048851013c-0.06983948 -7.842991 -7.576996 -14.161232 -16.790653 -14.131508c-9.213657 0.029727936 -16.664337 6.396229 -16.664337 14.239445z" fill-rule="evenodd"></path><path fill="#38761d" d="m85.843185 13.451733l5.7637787 4.2204723l-8.346458 11.370079l-5.7637787 -4.2204723z" fill-rule="evenodd"></path><path fill="#38761d" d="m104.82254 32.19129l1.7952728 6.89764l-13.6377945 3.5905495l-1.7952728 -6.8976364z" fill-rule="evenodd"></path><path fill="#38761d" d="m106.61665 54.25743l-0.472435 7.0866165l-14.078743 -0.94488144l0.47244263 -7.0866165z" fill-rule="evenodd"></path><path fill="#38761d" d="m102.436035 74.094345l-2.2047272 6.771652l-13.41732 -4.3779526l2.2047272 -6.771652z" fill-rule="evenodd"></path><path fill="#38761d" d="m38.551846 29.040972l5.7637787 -4.2204723l-8.346455 -11.370079l-5.7637806 4.2204723z" fill-rule="evenodd"></path><path fill="#38761d" d="m28.833036 42.221478l1.7952766 -6.89764l-13.637796 -3.5905495l-1.7952747 6.8976364z" fill-rule="evenodd"></path><path fill="#38761d" d="m30.627155 60.397854l-0.47244072 -7.0866165l-14.078741 0.94488144l0.47244072 7.0866165z" fill-rule="evenodd"></path><path fill="#38761d" d="m34.997715 76.48936l-2.2047234 -6.771652l-13.417324 4.3779526l2.2047234 6.771652z" fill-rule="evenodd"></path></g></svg>

