<?xml version="1.0" standalone="yes"?>

<svg version="1.1" viewBox="0.0 0.0 178.11286089238845 172.29133858267716" fill="none" stroke="none" stroke-linecap="square" stroke-miterlimit="10" xmlns="http://www.w3.org/2000/svg" xmlns:xlink="http://www.w3.org/1999/xlink"><clipPath id="p.0"><path d="m0 0l178.11285 0l0 172.29134l-178.11285 0l0 -172.29134z" clip-rule="nonzero"></path></clipPath><g clip-path="url(#p.0)"><path fill="#000000" fill-opacity="0.0" d="m0 0l178.11285 0l0 172.29134l-178.11285 0z" fill-rule="evenodd"></path><path fill="#38761d" d="m63.942257 104.90551l45.35433 0l0 51.46456l-45.35433 0z" fill-rule="evenodd"></path><path stroke="#38761d" stroke-width="8.0" stroke-linejoin="round" stroke-linecap="butt" d="m63.942257 104.90551l45.35433 0l0 51.46456l-45.35433 0z" fill-rule="evenodd"></path><path fill="#000000" fill-opacity="0.0" d="m69.93964 74.2126l0 0c0 -8.680008 7.02948 -15.716537 15.700783 -15.716537l0 0c4.1641083 0 8.157669 1.6558456 11.102135 4.6032677c2.9444656 2.947422 4.5986557 6.9449806 4.5986557 11.11327l0 0c0 8.68 -7.0294876 15.71653 -15.70079 15.71653l0 0c-8.671303 0 -15.700783 -7.0365295 -15.700783 -15.71653z" fill-rule="evenodd"></path><path stroke="#38761d" stroke-width="8.0" stroke-linejoin="round" stroke-linecap="butt" d="m69.93964 74.2126l0 0c0 -8.680008 7.02948 -15.716537 15.700783 -15.716537l0 0c4.1641083 0 8.157669 1.6558456 11.102135 4.6032677c2.9444656 2.947422 4.5986557 6.9449806 4.5986557 11.11327l0 0c0 8.68 -7.0294876 15.71653 -15.70079 15.71653l0 0c-8.671303 0 -15.700783 -7.0365295 -15.700783 -15.71653z" fill-rule="evenodd"></path><path fill="#38761d" d="m105.7778 103.43758l0 0c1.3081055 -2.1990204 4.1519623 -2.9225616 6.3519363 -1.616066l25.922935 15.3947525c1.0564728 0.62740326 1.8201294 1.6486053 2.1229858 2.838951c0.3028412 1.1903458 0.12008667 2.4523392 -0.50808716 3.5083466l-1.0897217 1.8319092c-1.3081055 2.199028 -4.1519623 2.9225693 -6.351944 1.6160736l-25.922935 -15.39476c-2.1999817 -1.306488 -2.922989 -4.1482697 -1.614891 -6.3472977z" fill-rule="evenodd"></path><path fill="#38761d" d="m32.431347 125.36135l0 0c1.3081017 2.1990204 4.1519585 2.9225693 6.3519363 1.616066l25.92294 -15.3947525c1.0564651 -0.62740326 1.8201218 -1.6485977 2.1229706 -2.838951c0.30285645 -1.1903458 0.12008667 -2.4523392 -0.5080795 -3.5083466l-1.0897217 -1.8319092c-1.3081017 -2.1990204 -4.1519623 -2.9225616 -6.35194 -1.6160736l-25.92294 15.39476c-2.1999779 1.3064957 -2.922987 4.1482773 -1.6148872 6.3472977z" fill-rule="evenodd"></path><path fill="#38761d" d="m130.64867 125.703064l0 0c-2.3475037 -1.0111237 -3.4324265 -3.7345123 -2.4232483 -6.082855l9.542267 -22.20456c0.4846344 -1.1277161 1.397232 -2.0163498 2.5370483 -2.4704285c1.1398163 -0.45407104 2.4134827 -0.43637848 3.5407867 0.049179077l1.9556122 0.84233093l0 0c2.3475037 1.0111237 3.432434 3.7345123 2.4232483 6.082855l-9.542267 22.20456c-1.0091858 2.348343 -3.7303162 3.432373 -6.077835 2.4212418z" fill-rule="evenodd"></path><path fill="#38761d" d="m24.571009 95.9842l0 0c-2.3262978 1.067688 -3.3496723 3.8204727 -2.2857723 6.148506l10.037045 21.963142c0.5109024 1.1179657 1.4446564 1.9864578 2.5958443 2.414421c1.1511917 0.4279709 2.425518 0.38035583 3.5426483 -0.13237l1.9379387 -0.8894501l0 0c2.3262978 -1.0676956 3.3496704 -3.8204727 2.2857704 -6.148506l-10.037041 -21.963142c-1.0639 -2.3280334 -3.8121967 -3.3497467 -6.1384945 -2.282051z" fill-rule="evenodd"></path><path fill="#000000" fill-opacity="0.0" d="m23.278303 56.170704l17.44882 -15.338585l15.590549 17.732285l-17.448818 15.338581z" fill-rule="evenodd"></path><path stroke="#38761d" stroke-width="8.0" stroke-linejoin="round" stroke-linecap="butt" d="m23.278303 56.170704l17.44882 -15.338585l15.590549 17.732285l-17.448818 15.338581z" fill-rule="evenodd"></path><path fill="#000000" fill-opacity="0.0" d="m70.91863 28.559055l0 0c0 -8.262527 7.0294876 -14.96063 15.70079 -14.96063l0 0c4.1641083 0 8.157661 1.5762053 11.102135 4.3818665c2.9444656 2.805664 4.5986557 6.610958 4.5986557 10.578764l0 0c0 8.262527 -7.0294876 14.9606285 -15.70079 14.9606285l0 0c-8.671303 0 -15.70079 -6.698101 -15.70079 -14.9606285z" fill-rule="evenodd"></path><path stroke="#38761d" stroke-width="8.0" stroke-linejoin="round" stroke-linecap="butt" d="m70.91863 28.559055l0 0c0 -8.262527 7.0294876 -14.96063 15.70079 -14.96063l0 0c4.1641083 0 8.157661 1.5762053 11.102135 4.3818665c2.9444656 2.805664 4.5986557 6.610958 4.5986557 10.578764l0 0c0 8.262527 -7.0294876 14.9606285 -15.70079 14.9606285l0 0c-8.671303 0 -15.70079 -6.698101 -15.70079 -14.9606285z" fill-rule="evenodd"></path><path fill="#000000" fill-opacity="0.0" d="m116.92126 63.553806l17.858269 -28.566929l17.858276 28.566929z" fill-rule="evenodd"></path><path stroke="#38761d" stroke-width="8.0" stroke-linejoin="round" stroke-linecap="butt" d="m116.92126 63.553806l17.858269 -28.566929l17.858276 28.566929z" fill-rule="evenodd"></path></g></svg>

