<?xml version="1.0" standalone="yes"?>

<svg version="1.1" viewBox="0.0 0.0 226.4461942257218 141.65879265091863" fill="none" stroke="none" stroke-linecap="square" stroke-miterlimit="10" xmlns="http://www.w3.org/2000/svg" xmlns:xlink="http://www.w3.org/1999/xlink"><clipPath id="p.0"><path d="m0 0l226.4462 0l0 141.6588l-226.4462 0l0 -141.6588z" clip-rule="nonzero"></path></clipPath><g clip-path="url(#p.0)"><path fill="#000000" fill-opacity="0.0" d="m0 0l226.4462 0l0 141.6588l-226.4462 0z" fill-rule="evenodd"></path><path fill="#000000" fill-opacity="0.0" d="m24.761154 14.246917l0 0c0 -0.16246033 0.13170052 -0.29416084 0.29416084 -0.29416084l153.20695 0c0.07801819 0 0.15283203 0.030991554 0.20800781 0.0861578c0.055160522 0.05516529 0.08615112 0.12998676 0.08615112 0.20800304l0 113.42743c0 0.16246033 -0.13169861 0.29415894 -0.29415894 0.29415894l-153.20695 0c-0.16246033 0 -0.29416084 -0.13169861 -0.29416084 -0.29415894z" fill-rule="evenodd"></path><path stroke="#38761d" stroke-width="8.0" stroke-linejoin="round" stroke-linecap="butt" d="m24.761154 14.246917l0 0c0 -0.16246033 0.13170052 -0.29416084 0.29416084 -0.29416084l153.20695 0c0.07801819 0 0.15283203 0.030991554 0.20800781 0.0861578c0.055160522 0.05516529 0.08615112 0.12998676 0.08615112 0.20800304l0 113.42743c0 0.16246033 -0.13169861 0.29415894 -0.29415894 0.29415894l-153.20695 0c-0.16246033 0 -0.29416084 -0.13169861 -0.29416084 -0.29415894z" fill-rule="evenodd"></path><path fill="#000000" fill-opacity="0.0" d="m42.14173 49.54327l126.89764 -0.062992096l0 33.039368l-126.89764 0.06299591z" fill-rule="evenodd"></path><path fill="#38761d" d="m81.78235 71.696724l-5.4374924 17.549576l-5.96875 0.002960205l-3.578125 -11.826347l-3.515625 11.829872l-6.046875 0.002998352l-5.390625 -17.544197l5.90625 -0.002937317l3.0 12.092262l3.75 -12.095612l4.984375 -0.0024719238l3.5625 12.09198l2.953125 -12.095215l5.7812424 -0.0028686523zm31.34375 -0.015563965l-5.4375 17.549576l-5.96875 0.0029678345l-3.578125 -11.826355l-3.515625 11.829872l-6.046875 0.0030059814l-5.390625 -17.544205l5.90625 -0.0029296875l3.0 12.092262l3.75 -12.095612l4.984375 -0.0024795532l3.5625 12.091988l2.953125 -12.095215l5.78125 -0.0028762817zm31.34375 -0.015556335l-5.4375 17.549576l-5.96875 0.002960205l-3.578125 -11.826347l-3.515625 11.829872l-6.046875 0.002998352l-5.390625 -17.544197l5.90625 -0.0029296875l3.0 12.092262l3.75 -12.095619l4.984375 -0.0024719238l3.5625 12.091988l2.953125 -12.095222l5.78125 -0.0028686523zm9.40625 17.542206l-5.84375 0.0029067993l0 -6.1406326l5.84375 -0.00289917l0 6.140625z" fill-rule="nonzero"></path><path fill="#000000" fill-opacity="0.0" d="m24.761154 14.001512l0 0c0 -0.026926994 0.021829605 -0.048755646 0.048755646 -0.048755646l133.69777 0c0.012924194 0 0.02532959 0.00513649 0.034469604 0.014280319c0.009155273 0.009143829 0.014282227 0.021544456 0.014282227 0.034475327l0 18.800129c0 0.026924133 -0.021820068 0.048755646 -0.04875183 0.048755646l-133.69777 0c-0.02692604 0 -0.048755646 -0.021831512 -0.048755646 -0.048755646z" fill-rule="evenodd"></path><path stroke="#38761d" stroke-width="8.0" stroke-linejoin="round" stroke-linecap="butt" d="m24.761154 14.001512l0 0c0 -0.026926994 0.021829605 -0.048755646 0.048755646 -0.048755646l133.69777 0c0.012924194 0 0.02532959 0.00513649 0.034469604 0.014280319c0.009155273 0.009143829 0.014282227 0.021544456 0.014282227 0.034475327l0 18.800129c0 0.026924133 -0.021820068 0.048755646 -0.04875183 0.048755646l-133.69777 0c-0.02692604 0 -0.048755646 -0.021831512 -0.048755646 -0.048755646z" fill-rule="evenodd"></path><path fill="#000000" fill-opacity="0.0" d="m160.3202 23.401575l0 0c0 -4.8531475 4.082321 -8.787402 9.118118 -8.787402l0 0c2.418274 0 4.737503 0.9258127 6.4474792 2.5737715c1.7099762 1.6479568 2.6706238 3.8830662 2.6706238 6.2136307l0 0c0 4.8531475 -4.082321 8.787401 -9.118103 8.787401l0 0c-5.035797 0 -9.118118 -3.9342537 -9.118118 -8.787401zm0 0l0 0c0 4.8531475 4.082321 8.787401 9.118118 8.787401l0 0c5.035782 0 9.118103 -3.9342537 9.118103 -8.787401l0 0c0 -4.8531475 -4.082321 -8.787402 -9.118103 -8.787402l0 0c-5.035797 0 -9.118118 3.9342546 -9.118118 8.787402z" fill-rule="evenodd"></path><path stroke="#38761d" stroke-width="8.0" stroke-linejoin="round" stroke-linecap="butt" d="m160.3202 23.401575l0 0c0 -4.8531475 4.082321 -8.787402 9.118118 -8.787402l0 0c2.418274 0 4.737503 0.9258127 6.4474792 2.5737715c1.7099762 1.6479568 2.6706238 3.8830662 2.6706238 6.2136307l0 0c0 4.8531475 -4.082321 8.787401 -9.118103 8.787401l0 0c-5.035797 0 -9.118118 -3.9342537 -9.118118 -8.787401zm0 0l0 0c0 4.8531475 4.082321 8.787401 9.118118 8.787401l0 0c5.035782 0 9.118103 -3.9342537 9.118103 -8.787401l0 0c0 -4.8531475 -4.082321 -8.787402 -9.118103 -8.787402l0 0c-5.035797 0 -9.118118 3.9342546 -9.118118 8.787402z" fill-rule="evenodd"></path><path fill="#000000" fill-opacity="0.0" d="m154.37007 32.850395l21.88977 0.4724388" fill-rule="evenodd"></path><path stroke="#38761d" stroke-width="8.0" stroke-linejoin="round" stroke-linecap="butt" d="m154.37007 32.850395l21.88977 0.4724388" fill-rule="evenodd"></path></g></svg>

